:SAMPLES-PER-SECOND 30
:FULLY-SPECIFIED
:DEGREES
147
root  -56.2549 41.4543 -34.9145 -179.425 -31.2011 179.39
RightUpLeg  -2.61696 -5.54504 -0.955912
RightLeg  4.45486 1.46986 3.65583
RightFoot  -0.875973 0.547487 -6.03212
RightToes  -1.16417e-010 0 -3.6325e-017
Spine  -0.837904 -1.05573 1.80314
Spine1  4.1142 -1.06327 -0.298441
HEad  -11.1466 5.55944 -1.91426
LeftShoulder1  -0.0574923 3.95975 -5.94944
LeftArm  -20.3414 16.4815 -1.90539
LeftForeArm  12.0375 -16.0607 -2.5215
LeftHand  -0.244104 0.0205437 5.32207
RightShoulder  0.177518 -2.06185 4.40216
RightArm  -16.9609 -9.52198 -2.02563
RightForeArm  -13.7623 3.26299 4.40091
RightHand  -1.76703 5.77349 -18.5249
LeftUpLeg  -1.78954 2.70606 0.920845
LeftLeg  2.0235 0.964347 -3.00923
LeftFoot  -0.682559 -0.239346 2.57578
LeftToes  5.72949e-011 -1.2716e-010 -5.73128e-012
148
root  -56.3334 41.4552 -35.0163 -179.264 -31.1948 179.455
RightUpLeg  -2.58531 -5.48174 -0.900704
RightLeg  4.39644 1.39475 3.60991
RightFoot  -1.05566 0.522406 -5.87405
RightToes  -1.16417e-010 0 -3.6325e-017
Spine  -0.818982 -1.12541 1.44619
Spine1  4.20109 -1.20393 0.0595348
HEad  -11.4474 5.6755 -2.05264
LeftShoulder1  -0.0492189 3.90184 -5.87254
LeftArm  -19.4291 15.3144 -2.02005
LeftForeArm  10.6726 -14.7943 -2.51532
LeftHand  -0.244104 0.0205437 5.32207
RightShoulder  0.202973 -1.87521 4.58111
RightArm  -16.4831 -8.9525 -2.34784
RightForeArm  -13.9094 2.89011 4.54701
RightHand  -1.68422 5.43007 -18.2229
LeftUpLeg  -1.837 2.71329 0.935033
LeftLeg  2.14921 1.01807 -2.98492
LeftFoot  -0.885811 -0.248376 2.77379
LeftToes  5.72949e-011 -1.2716e-010 -5.73128e-012
149
root  -56.4079 41.4594 -35.1095 -179.08 -31.1349 179.473
RightUpLeg  -2.60414 -5.45763 -0.888673
RightLeg  4.3854 1.4112 3.57845
RightFoot  -1.18778 0.505068 -5.76646
RightToes  -1.16417e-010 0 -3.6325e-017
Spine  -0.704729 -1.1908 1.1771
Spine1  4.12536 -1.31696 0.311947
HEad  -11.6314 5.79542 -2.19562
LeftShoulder1  -0.014612 3.64497 -6.37043
LeftArm  -18.3207 14.5118 -2.06983
LeftForeArm  10.2816 -13.5695 -2.6073
LeftHand  -0.244104 0.0205437 5.32207
RightShoulder  0.215828 -1.79502 4.77019
RightArm  -15.6026 -8.56404 -1.87842
RightForeArm  -13.6263 2.91071 4.84618
RightHand  -1.58465 5.00292 -17.8529
LeftUpLeg  -1.81444 2.68033 0.920466
LeftLeg  2.09838 1.06374 -2.96126
LeftFoot  -1.08163 -0.234158 2.68066
LeftToes  5.72949e-011 -1.2716e-010 -5.73128e-012
150
root  -56.4781 41.4613 -35.2082 -178.773 -31.0869 179.436
RightUpLeg  -2.71258 -5.44923 -0.917401
RightLeg  4.36413 1.46168 3.5653
RightFoot  -1.35034 0.496612 -5.77671
RightToes  -1.16417e-010 0 -3.6325e-017
Spine  -0.701354 -1.26068 0.877564
Spine1  3.93938 -1.41097 0.453815
HEad  -11.6441 5.93159 -2.22673
LeftShoulder1  0.0445067 3.23248 -6.8445
LeftArm  -17.5212 14.2367 -2.4051
LeftForeArm  11.2558 -12.4718 -2.65272
LeftHand  -0.244104 0.0205437 5.32207
RightShoulder  0.238447 -1.678 5.24749
RightArm  -14.8539 -8.29407 -1.13439
RightForeArm  -12.1953 2.96583 5.03553
RightHand  -1.44622 4.54887 -17.0526
LeftUpLeg  -1.83321 2.61248 0.8646
LeftLeg  1.8962 1.14698 -2.94305
LeftFoot  -1.17891 -0.205023 2.38608
LeftToes  5.72949e-011 -1.2716e-010 -5.73128e-012
151
root  -56.5466 41.4596 -35.3096 -178.405 -31.0427 179.404
RightUpLeg  -2.85056 -5.40883 -0.932184
RightLeg  4.27528 1.48757 3.55038
RightFoot  -1.53186 0.487267 -5.78952
RightToes  -1.16417e-010 0 -3.6325e-017
Spine  -0.8659 -1.33389 0.48188
Spine1  3.83135 -1.53304 0.703608
HEad  -11.5961 6.00662 -2.30536
LeftShoulder1  0.095574 2.89437 -7.20425
LeftArm  -16.9304 14.2727 -2.9973
LeftForeArm  12.6101 -11.4629 -2.66401
LeftHand  -0.244104 0.0205437 5.32207
RightShoulder  0.281549 -1.4497 5.98111
RightArm  -14.3997 -8.13102 -0.554404
RightForeArm  -10.4258 3.038 5.10851
RightHand  -1.29641 4.15677 -15.9404
LeftUpLeg  -1.92577 2.52688 0.791059
LeftLeg  1.7164 1.31735 -2.8942
LeftFoot  -1.23403 -0.192612 2.26262
LeftToes  5.72949e-011 -1.2716e-010 -5.73128e-012
152
root  -56.616 41.4587 -35.3994 -178.133 -30.9175 179.445
RightUpLeg  -2.95285 -5.36276 -0.901428
RightLeg  4.19006 1.56071 3.55552
RightFoot  -1.64671 0.477766 -5.75548
RightToes  -1.16417e-010 0 -3.6325e-017
Spine  -1.00426 -1.3802 0.175949
Spine1  3.83711 -1.65361 1.06249
HEad  -11.6876 6.04024 -2.6026
LeftShoulder1  0.137475 2.64103 -7.73891
LeftArm  -16.1005 14.3355 -3.3291
LeftForeArm  13.3311 -10.2165 -2.74888
LeftHand  -0.244104 0.0205437 5.32207
RightShoulder  0.320474 -1.25643 6.60996
RightArm  -14.2483 -8.07785 -0.0747748
RightForeArm  -9.5133 3.28534 5.15921
RightHand  -1.16692 3.77099 -14.9717
LeftUpLeg  -2.03462 2.48172 0.766963
LeftLeg  1.70293 1.50101 -2.83768
LeftFoot  -1.38864 -0.201419 2.41014
LeftToes  5.72949e-011 -1.2716e-010 -5.73128e-012
153
root  -56.6871 41.4605 -35.4779 -177.979 -30.6479 179.523
RightUpLeg  -3.01374 -5.36028 -0.866326
RightLeg  4.17378 1.79354 3.60297
RightFoot  -1.67374 0.476971 -5.7691
RightToes  -1.16417e-010 0 -3.6325e-017
Spine  -1.00256 -1.37669 0.169587
Spine1  3.80983 -1.67161 1.15811
HEad  -11.8387 6.03571 -2.95605
LeftShoulder1  0.194094 2.30687 -8.25863
LeftArm  -14.9621 14.4389 -3.28358
LeftForeArm  13.2261 -8.402 -2.87652
LeftHand  -0.244104 0.0205437 5.32207
RightShoulder  0.340871 -1.18047 7.07
RightArm  -14.3703 -8.02706 0.399347
RightForeArm  -9.37707 3.47754 5.16944
RightHand  -1.07027 3.36422 -14.3757
LeftUpLeg  -2.06089 2.51211 0.803581
LeftLeg  1.72882 1.69449 -2.83659
LeftFoot  -1.59445 -0.204931 2.51377
LeftToes  5.72949e-011 -1.2716e-010 -5.73128e-012
154
root  -56.7596 41.4633 -35.5582 -177.87 -30.2971 179.576
RightUpLeg  -3.02214 -5.36369 -0.848783
RightLeg  4.17528 2.12353 3.63541
RightFoot  -1.68582 0.482739 -5.86161
RightToes  -1.16417e-010 0 -3.6325e-017
Spine  -0.947517 -1.35354 0.408748
Spine1  3.66224 -1.57699 0.807902
HEad  -11.8472 5.99943 -3.11397
LeftShoulder1  0.251661 1.93745 -8.22903
LeftArm  -13.8451 14.6962 -3.34002
LeftForeArm  12.355 -6.14125 -2.94964
LeftHand  -0.244104 0.0205437 5.32207
RightShoulder  0.365477 -1.09143 7.60219
RightArm  -14.5383 -7.88706 0.644983
RightForeArm  -9.26117 3.29459 5.11522
RightHand  -1.02111 3.09975 -14.1401
LeftUpLeg  -1.97435 2.54237 0.831494
LeftLeg  1.6658 2.00291 -2.847
LeftFoot  -1.73998 -0.192115 2.40796
LeftToes  5.72949e-011 -1.2716e-010 -5.73128e-012
